<svg width="52" height="52" viewBox="0 0 52 52" fill="none" xmlns="http://www.w3.org/2000/svg">
<rect width="52" height="52" rx="9.4" fill="#F4F4F4"/>
<g clip-path="url(#clip0_9_233)">
<path d="M20.5416 28.059L19.8176 30.7619L17.1713 30.8179C16.3805 29.351 15.9319 27.6727 15.9319 25.8893C15.9319 24.1647 16.3513 22.5384 17.0947 21.1064H17.0953L19.4512 21.5384L20.4833 23.8802C20.2673 24.5099 20.1495 25.1859 20.1495 25.8893C20.1496 26.6527 20.2879 27.3842 20.5416 28.059Z" fill="#FBBB00"/>
<path d="M36.5503 23.9465C36.6698 24.5756 36.732 25.2253 36.732 25.8894C36.732 26.6339 36.6538 27.3602 36.5046 28.0608C35.9983 30.4448 34.6755 32.5265 32.8429 33.9997L32.8424 33.9991L29.8749 33.8477L29.455 31.2259C30.6709 30.5128 31.6212 29.3968 32.1218 28.0608H26.5607V23.9465H32.203H36.5503Z" fill="#518EF8"/>
<path d="M32.842 33.9991L32.8426 33.9997C31.0603 35.4323 28.7963 36.2894 26.3317 36.2894C22.3711 36.2894 18.9277 34.0757 17.1711 30.818L20.5414 28.0592C21.4197 30.4031 23.6809 32.0717 26.3317 32.0717C27.4711 32.0717 28.5386 31.7637 29.4546 31.226L32.842 33.9991Z" fill="#28B446"/>
<path d="M32.9702 17.8837L29.601 20.6419C28.653 20.0494 27.5324 19.7071 26.3319 19.7071C23.621 19.7071 21.3176 21.4522 20.4833 23.8802L17.0953 21.1065H17.0947C18.8256 17.7694 22.3124 15.4894 26.3319 15.4894C28.8553 15.4894 31.169 16.3883 32.9702 17.8837Z" fill="#F14336"/>
</g>
<defs>
<clipPath id="clip0_9_233">
<rect width="20.8" height="20.8" fill="white" transform="translate(15.9319 15.4894)"/>
</clipPath>
</defs>
</svg>
